<svg width="362" height="349" viewBox="0 0 362 349" fill="none" xmlns="http://www.w3.org/2000/svg">
<path fill-rule="evenodd" clip-rule="evenodd" d="M212.675 15C212.675 6.71573 205.959 0 197.675 0H164.325C156.041 0 149.325 6.71574 149.325 15V128.962C149.325 137.247 142.609 143.962 134.325 143.962H15C6.71573 143.962 0 150.678 0 158.963V190.037C0 198.322 6.7157 205.037 15 205.037H134.325C142.609 205.037 149.325 211.753 149.325 220.038V334C149.325 342.284 156.041 349 164.325 349H197.675C205.959 349 212.675 342.284 212.675 334V220.037C212.675 211.753 219.391 205.037 227.675 205.037H347C355.284 205.037 362 198.322 362 190.037V158.962C362 150.678 355.284 143.962 347 143.962H227.675C219.391 143.962 212.675 137.247 212.675 128.962V15ZM70.445 58.404V308.865H54.445V54.8307V51.3149L57.0349 48.9373C70.3197 36.7419 82.6024 29.3454 96.5517 29.5205C110.159 29.6913 123.253 37.0974 138.149 48.4725L139.881 49.7953L140.703 51.814L185.253 161.238L240.957 51.217L241.69 49.7701L242.928 48.7227C255.17 38.3671 266.54 30.962 279.039 30.6247C291.827 30.2796 303.346 37.3301 315.863 48.9728L318.415 51.346V54.8307V308.865H302.415V58.3755C292.048 49.2334 285.215 46.4638 279.47 46.6189C273.201 46.7881 265.878 50.4431 254.491 59.9069L191.599 184.124L183.671 199.784L177.053 183.527L126.714 59.8856C113.067 49.6808 104.037 45.6157 96.3509 45.5192C89.2317 45.4299 81.4902 48.7662 70.445 58.404Z" fill="#03426A"/>
</svg>
